<svg xmlns="http://www.w3.org/2000/svg" viewBox="0 0 831 159" width="831" height="159">
	<style>
		tspan { white-space:pre }
	</style>
	<path id="Sedo.Network " fill="#ffc300" d="M82.59 94.52L82.59 78.83Q82.59 74 75.52 74L65.34 74Q51.9 74 46.72 66.76Q45 64.34 45 61.24L45 49.69Q45 43.83 50.86 40.38Q56.9 36.76 65.34 36.76L78.79 36.76Q87.24 36.76 93.1 40.21Q99.14 43.66 99.14 49.69L99.14 56.76L82.59 56.76L82.59 51.24Q82.59 46.41 75.52 46.41L68.62 46.41Q61.55 46.41 61.55 51.24L61.55 59.52Q61.55 64.69 68.62 64.34L78.79 64.34Q87.24 64.34 93.1 67.79Q99.14 71.24 99.14 77.28L99.14 96.07Q99.14 102.1 92.93 105.55Q87.24 109 78.79 109L65.34 109Q52.07 109 46.72 101.59Q45 99.17 45 96.07L45 86.41L61.55 86.41L61.55 94.52Q61.55 99.34 68.62 99.34L75.52 99.34Q82.59 99.34 82.59 94.52ZM140.17 64.52L135.17 64.52Q128.1 64.52 128.1 69.34L128.1 74.34L147.07 74.34L147.07 69.34Q147.07 64.52 140.17 64.52ZM135.17 99.34L140.17 99.34Q147.07 99.34 147.07 94.52L147.07 91.07L163.62 91.07L163.62 96.07Q163.62 102.1 157.41 105.55Q151.72 109 143.45 109L131.9 109Q118.62 109 113.28 101.59Q111.55 99.17 111.55 96.07L111.55 67.79Q111.55 61.93 117.41 58.48Q123.45 54.86 131.9 54.86L143.45 54.86Q151.72 54.86 157.41 58.31Q163.62 61.76 163.62 67.79L163.62 84L128.1 84L128.1 94.52Q128.1 99.34 135.17 99.34ZM199.83 99.34L206.72 99.34Q213.79 99.34 213.79 94.52L213.79 69.34Q213.45 64.69 206.72 64.69L199.83 64.69Q192.76 64.69 192.76 69.52L192.76 94.52Q192.76 99.34 199.83 99.34ZM176.21 96.24L176.21 67.79Q176.21 62.1 182.07 58.66Q188.1 55.03 196.55 55.03L206.03 55.03Q210 55.03 211.55 55.9L213.79 56.93L213.79 38.66L230.34 38.66L230.34 109L213.79 109L213.79 107.45Q210 109 205.34 109L196.55 109Q183.28 109 177.93 101.59Q176.21 99.17 176.21 96.24ZM266.72 99.34L271.72 99.34Q278.62 99.34 278.62 94.52L278.62 69.34Q278.62 64.52 271.72 64.52L266.72 64.52Q259.66 64.52 259.66 69.34L259.66 94.52Q259.66 99.34 266.72 99.34ZM243.1 96.07L243.1 67.79Q243.1 61.93 248.97 58.48Q255 54.86 263.45 54.86L275 54.86Q283.28 54.86 288.97 58.31Q295.17 61.76 295.17 67.79L295.17 96.07Q295.17 102.1 288.97 105.55Q283.28 109 275 109L263.45 109Q250.17 109 244.83 101.59Q243.1 99.17 243.1 96.07Z" />
	<path id="Sedo.Network " fill="#b31c8e" d="M336.03 96.59Q333.1 96.59 333.1 94.69Q332.41 94.69 331.72 95.55Q331.21 96.41 331.21 97.62L331.21 103.31Q331.21 104.52 331.9 105.38Q332.41 106.41 333.1 106.41Q333.1 104.17 336.03 104.17Q337.76 104.17 337.76 106.24Q337.76 109.86 334.14 109.86L313.28 109.86Q311.72 109.86 310.69 109.17Q309.66 108.31 309.66 107.1Q309.66 105.72 310.34 105.03Q311.21 104.17 312.07 104.17Q314.48 104.17 314.48 106.41Q315.17 106.41 315.69 105.38Q316.38 104.52 316.38 103.31L316.38 97.62Q316.38 96.41 315.69 95.55Q315.17 94.69 314.48 94.69Q314.48 95.55 313.79 96.07Q313.1 96.59 312.24 96.59Q309.66 96.59 309.66 94Q309.66 91.24 313.28 91.24L334.14 91.24Q337.76 91.24 337.76 94Q337.76 96.59 336.03 96.59Z" />
	<path id="Sedo.Network " fill="#931fde" d="M367.76 109L351.21 109L351.21 36.76L368.28 36.76L394.14 80.9L394.14 36.93L410.86 36.93L410.86 109L393.45 109L367.76 65.55L367.76 109ZM453.45 64.52L448.45 64.52Q441.38 64.52 441.38 69.34L441.38 74.34L460.34 74.34L460.34 69.34Q460.34 64.52 453.45 64.52ZM448.45 99.34L453.45 99.34Q460.34 99.34 460.34 94.52L460.34 91.07L476.9 91.07L476.9 96.07Q476.9 102.1 470.69 105.55Q465 109 456.72 109L445.17 109Q431.9 109 426.55 101.59Q424.83 99.17 424.83 96.07L424.83 67.79Q424.83 61.93 430.69 58.48Q436.72 54.86 445.17 54.86L456.72 54.86Q465 54.86 470.69 58.31Q476.9 61.76 476.9 67.79L476.9 84L441.38 84L441.38 94.52Q441.38 99.34 448.45 99.34ZM513.62 64.69L513.62 94.52Q513.62 99.34 520.52 99.34L524.83 99.34L524.83 109L517.24 109Q503.97 109 498.62 101.59Q496.9 99.17 496.9 96.07L496.9 64.69L486.9 64.69L486.9 55.03L496.9 55.03L496.9 42.79L513.62 42.79L513.62 55.03L524.14 55.03L524.14 64.69L513.62 64.69ZM601.72 109L585 109L574.83 79.34L564.66 109L547.93 109L529.31 54.86L545.86 54.86L556.21 84.86L566.55 54.86L583.1 54.86L593.28 84.86L603.62 54.86L620.34 54.86L601.72 109ZM651.72 99.34L656.72 99.34Q663.62 99.34 663.62 94.52L663.62 69.34Q663.62 64.52 656.72 64.52L651.72 64.52Q644.66 64.52 644.66 69.34L644.66 94.52Q644.66 99.34 651.72 99.34ZM628.1 96.07L628.1 67.79Q628.1 61.93 633.97 58.48Q640 54.86 648.45 54.86L660 54.86Q668.28 54.86 673.97 58.31Q680.17 61.76 680.17 67.79L680.17 96.07Q680.17 102.1 673.97 105.55Q668.28 109 660 109L648.45 109Q635.17 109 629.83 101.59Q628.1 99.17 628.1 96.07ZM709.14 55.03L709.14 59.17Q713.28 55.03 721.55 55.03L724.48 55.03L724.48 64.69L720.17 64.69Q713.1 64.69 710.17 69Q709.14 70.38 709.14 72.1L709.14 109L692.59 109L692.59 55.03L709.14 55.03ZM748.79 109L732.24 109L732.24 38.48L748.79 38.48L748.79 81.24L769.48 55.03L787.07 55.03L766.03 81.76L787.07 109L769.48 109L748.79 82.45L748.79 109Z" />
</svg>